<?xml version="1.0" encoding="UTF-8"?>
<svg xmlns="http://www.w3.org/2000/svg" width="390" height="844" viewBox="0 0 390 844">
<g id="Sfondi">
<rect id="Sfondo_tastiera" x="0" y="0" width="390" height="844" fill="#F2FBE3"/>
<rect id="Sfondo_campi" x="0" y="0" width="390" height="438" fill="#4D4DFF"/>
</g>
<g id="Proporzione">
<rect id="Campo_attivo" x="213" y="149" width="161" height="58" rx="29" fill="#E6FC9C"/>
<rect id="Barra_sinistra" x="16" y="218" width="161" height="2" fill="#E6FC9C"/>
<rect id="Barra_destra" x="213" y="218" width="161" height="2" fill="#E6FC9C"/>
<text id="Segno_uguale" x="195" y="227" font-family="Inter-Light, Inter" font-weight="300" font-size="32" fill="#E6FC9C" text-anchor="middle">=</text>
<text id="Numero_a" x="96.5" y="195.47" font-family="Inter-Light, Inter" font-weight="300" font-size="48" fill="#F2FBE3" text-anchor="middle">1250,5</text>
<text id="Numero_campo_attivo_c" x="293.5" y="195.47" font-family="Inter-Light, Inter" font-weight="300" font-size="48" fill="#111111" text-anchor="middle">12,8</text>
<text id="Numero_b" x="96.5" y="277.47" font-family="Inter-Light, Inter" font-weight="300" font-size="48" fill="#F2FBE3" text-anchor="middle">3,75</text>
</g>
<g id="Tastiera">
<g id="Tasti_numeri_forme"><rect id="Forma_7" x="16" y="462" width="79" height="79" rx="39.5" fill="#C4B8FF"/><rect id="Forma_8" x="109" y="462" width="79" height="79" rx="39.5" fill="#C4B8FF"/><rect id="Forma_9" x="202" y="462" width="79" height="79" rx="39.5" fill="#C4B8FF"/><rect id="Forma_4" x="16" y="555" width="79" height="79" rx="39.5" fill="#C4B8FF"/><rect id="Forma_5" x="109" y="555" width="79" height="79" rx="39.5" fill="#C4B8FF"/><rect id="Forma_6" x="202" y="555" width="79" height="79" rx="39.5" fill="#C4B8FF"/><rect id="Forma_1" x="16" y="648" width="79" height="79" rx="39.5" fill="#C4B8FF"/><rect id="Forma_2" x="109" y="648" width="79" height="79" rx="39.5" fill="#C4B8FF"/><rect id="Forma_3" x="202" y="648" width="79" height="79" rx="39.5" fill="#C4B8FF"/><rect id="Forma_segno" x="16" y="741" width="79" height="79" rx="39.5" fill="#C4B8FF"/><rect id="Forma_0" x="109" y="741" width="79" height="79" rx="39.5" fill="#C4B8FF"/><rect id="Forma_virgola" x="202" y="741" width="79" height="79" rx="39.5" fill="#C4B8FF"/></g>
<g id="Cifre_sui_tasti"><text id="Cifra_7" x="55.5" y="514.73" font-family="Inter-Light, Inter" font-weight="300" font-size="36.34" fill="#111111" text-anchor="middle">7</text><text id="Cifra_8" x="148.5" y="514.73" font-family="Inter-Light, Inter" font-weight="300" font-size="36.34" fill="#111111" text-anchor="middle">8</text><text id="Cifra_9" x="241.5" y="514.73" font-family="Inter-Light, Inter" font-weight="300" font-size="36.34" fill="#111111" text-anchor="middle">9</text><text id="Cifra_4" x="55.5" y="607.73" font-family="Inter-Light, Inter" font-weight="300" font-size="36.34" fill="#111111" text-anchor="middle">4</text><text id="Cifra_5" x="148.5" y="607.73" font-family="Inter-Light, Inter" font-weight="300" font-size="36.34" fill="#111111" text-anchor="middle">5</text><text id="Cifra_6" x="241.5" y="607.73" font-family="Inter-Light, Inter" font-weight="300" font-size="36.34" fill="#111111" text-anchor="middle">6</text><text id="Cifra_1" x="55.5" y="700.73" font-family="Inter-Light, Inter" font-weight="300" font-size="36.34" fill="#111111" text-anchor="middle">1</text><text id="Cifra_2" x="148.5" y="700.73" font-family="Inter-Light, Inter" font-weight="300" font-size="36.34" fill="#111111" text-anchor="middle">2</text><text id="Cifra_3" x="241.5" y="700.73" font-family="Inter-Light, Inter" font-weight="300" font-size="36.34" fill="#111111" text-anchor="middle">3</text><text id="Cifra_segno" x="55.5" y="793.73" font-family="Inter-Light, Inter" font-weight="300" font-size="36.34" fill="#111111" text-anchor="middle">+/-</text><text id="Cifra_0" x="148.5" y="793.73" font-family="Inter-Light, Inter" font-weight="300" font-size="36.34" fill="#111111" text-anchor="middle">0</text><text id="Cifra_virgola" x="241.5" y="784.13" font-family="Inter-Light, Inter" font-weight="300" font-size="36.34" fill="#111111" text-anchor="middle">,</text></g>
<g id="Tasto_C"><rect id="Tasto_C_forma" x="295" y="462" width="79" height="79" rx="39.5" fill="#FF2BD6"/><text id="Tasto_C_testo" x="334.5" y="514.73" font-family="Inter-Light, Inter" font-weight="300" font-size="36.34" fill="#FFFFFF" text-anchor="middle">C</text></g>
<g id="Tasto_DEL"><rect id="Tasto_DEL_forma" x="295" y="555" width="79" height="79" rx="39.5" fill="#FF6B35"/><text id="Tasto_DEL_testo" x="334.5" y="603.13" font-family="Inter-Light, Inter" font-weight="300" font-size="23.7" fill="#FFFFFF" text-anchor="middle">DEL</text></g>
<g id="Tasto_uguale"><rect id="Tasto_uguale_forma" x="295" y="648" width="79" height="172" rx="39.5" fill="#22CC6E"/><text id="Tasto_uguale_testo" x="334.5" y="745.06" font-family="Inter-Light, Inter" font-weight="300" font-size="44.24" fill="#FFFFFF" text-anchor="middle">=</text></g>
</g>
</svg>